# xmcd CD database file
#
# Track frame offsets:
#	150
#	13782
#	38605
#	60237
#	76812
#	97952
#	115175
#	133912
#	153957
#	173892
#	191082
#	209432
#	225295
#	246592
#
# Disc length: 3623 seconds
#
# Revision: 0
# Processed by: cddbd v1.4PL0 Copyright (c) Steve Scherf et al.
# Submitted via: CDex 1.50Beta7
#
DISCID=ae0e250e
DTITLE=Asa Harris - All in good time
DYEAR=1999
DGENRE=Jazz
TTITLE0=The song in You
TTITLE1=Daydream
TTITLE2=ATime for Love
TTITLE3=The Lake, Lake show
TTITLE4=Love for sale
TTITLE5=It never was You
TTITLE6=The Jitterbug waltz
TTITLE7=These Foolish Things
TTITLE8=Wave
TTITLE9=Someone to watch over Me
TTITLE10=Tuxedo Junction
TTITLE11=Die moritat Von Mackie Messer
TTITLE12=Lullaby of Birdland
TTITLE13=Données Film
EXTD=YEAR: 1999
EXTT0=
EXTT1=
EXTT2=
EXTT3=
EXTT4=
EXTT5=
EXTT6=
EXTT7=
EXTT8=
EXTT9=
EXTT10=
EXTT11=
EXTT12=
EXTT13=
PLAYORDER=
